<svg version="1.1" id="Layer_1" xmlns="http://www.w3.org/2000/svg" xmlns:xlink="http://www.w3.org/1999/xlink" x="0px" y="0px" width="161.024px" height="46.088px" viewBox="0 0 161.024 46.088" enable-background="new 0 0 161.024 46.088" xml:space="preserve">
<g>
	<polyline fill="#FFFFFF" points="30.526,30.725 30.526,46.088 0,46.088 0,15.363 15.263,15.363 15.263,30.725 30.526,30.725  "/>
	<rect x="15.263" fill="#FFFFFF" width="15.263" height="15.363"/>
	<rect x="21.139" y="21.278" fill="#FFFFFF" width="3.51" height="3.533"/>
	<rect x="30.526" y="15.363" fill="#FFFFFF" width="15.263" height="15.363"/>
	<path fill="#FFFFFF" d="M160.502,17.719c-0.5-1.006-1.205-1.717-2.119-2.133c-0.912-0.415-1.901-0.623-2.967-0.623   c-0.717,0-1.412,0.093-2.086,0.279s-1.277,0.465-1.809,0.836c-0.533,0.373-0.957,0.854-1.271,1.444   c-0.316,0.591-0.473,1.28-0.473,2.067c0,0.722,0.15,1.329,0.456,1.822c0.304,0.492,0.668,0.891,1.092,1.197   c0.425,0.307,0.858,0.537,1.304,0.689c0.445,0.154,0.799,0.263,1.061,0.328l2.086,0.493c0.804,0.197,1.488,0.464,2.054,0.804   c0.565,0.339,0.847,0.891,0.847,1.656c0,0.438-0.103,0.82-0.309,1.148c-0.207,0.328-0.479,0.596-0.814,0.804   c-0.338,0.208-0.724,0.361-1.158,0.459c-0.436,0.099-0.869,0.148-1.305,0.148c-0.912,0-1.699-0.208-2.362-0.623   c-0.663-0.416-1.212-0.974-1.646-1.675l-1.858,1.281c0.718,1.094,1.582,1.864,2.592,2.313c1.011,0.447,2.104,0.673,3.275,0.673   c0.739,0,1.467-0.088,2.186-0.263c0.717-0.174,1.354-0.453,1.906-0.836c0.555-0.383,1-0.875,1.336-1.478   c0.338-0.601,0.507-1.317,0.507-2.149c0-1.094-0.354-2.006-1.06-2.739c-0.707-0.733-1.593-1.219-2.658-1.46l-2.184-0.525   c-1-0.241-1.75-0.525-2.248-0.853c-0.502-0.329-0.75-0.854-0.75-1.576c0-0.415,0.092-0.765,0.276-1.05   c0.185-0.284,0.429-0.519,0.733-0.705s0.646-0.323,1.026-0.41s0.755-0.131,1.125-0.131c0.782,0,1.445,0.186,1.989,0.557   c0.543,0.373,0.979,0.876,1.304,1.51L160.502,17.719z M132.205,15.356c0.043,0.57,0.082,1.171,0.114,1.805   c0.033,0.635,0.049,1.16,0.049,1.575v11.978h2.152v-7.875c0-1.4,0.217-2.494,0.651-3.281c0.435-0.788,0.93-1.379,1.483-1.772   c0.554-0.394,1.081-0.635,1.581-0.722s0.805-0.131,0.913-0.131c1.586,0,2.673,0.454,3.26,1.361c0.587,0.908,0.88,2.215,0.88,3.922   v8.499h2.152v-9.746c0-1.925-0.469-3.407-1.402-4.447c-0.935-1.038-2.38-1.558-4.336-1.558c-0.5,0-1.005,0.071-1.516,0.213   c-0.512,0.143-0.994,0.339-1.45,0.591c-0.457,0.251-0.87,0.552-1.239,0.902s-0.674,0.733-0.912,1.149h-0.065   c0-0.416-0.007-0.826-0.017-1.231c-0.012-0.405-0.039-0.815-0.082-1.231H132.205z M127.854,19.819   c-0.402-0.984-0.961-1.837-1.678-2.559c-0.719-0.722-1.571-1.285-2.561-1.69c-0.988-0.405-2.081-0.607-3.275-0.607   c-1.174,0-2.256,0.202-3.244,0.607c-0.989,0.405-1.842,0.968-2.56,1.69c-0.717,0.722-1.276,1.575-1.679,2.559   c-0.402,0.985-0.604,2.057-0.604,3.216c0,1.16,0.201,2.231,0.604,3.215s0.962,1.838,1.679,2.56c0.718,0.722,1.57,1.285,2.56,1.69   c0.988,0.403,2.07,0.606,3.244,0.606c1.194,0,2.287-0.203,3.275-0.606c0.989-0.405,1.842-0.969,2.561-1.69   c0.717-0.722,1.275-1.575,1.678-2.56s0.604-2.056,0.604-3.215C128.457,21.876,128.256,20.804,127.854,19.819 M125.702,25.43   c-0.272,0.744-0.657,1.39-1.157,1.936c-0.5,0.547-1.104,0.979-1.81,1.297s-1.505,0.476-2.396,0.476   c-0.892,0-1.69-0.158-2.396-0.476s-1.305-0.75-1.793-1.297c-0.489-0.546-0.869-1.191-1.141-1.936   c-0.272-0.743-0.407-1.542-0.407-2.395s0.135-1.652,0.407-2.396c0.271-0.743,0.651-1.388,1.141-1.936   c0.488-0.546,1.087-0.978,1.793-1.296c0.706-0.317,1.505-0.475,2.396-0.475c0.891,0,1.689,0.158,2.396,0.475   c0.706,0.318,1.31,0.75,1.81,1.296c0.5,0.548,0.885,1.193,1.157,1.936c0.271,0.744,0.407,1.543,0.407,2.396   S125.973,24.687,125.702,25.43 M110.201,17.621c-0.761-0.897-1.62-1.559-2.576-1.986c-0.955-0.426-1.955-0.65-2.998-0.672   c-1.24-0.022-2.359,0.169-3.359,0.574c-1,0.405-1.852,0.968-2.559,1.69c-0.705,0.722-1.244,1.581-1.613,2.576   c-0.369,0.995-0.555,2.073-0.555,3.232c0,1.16,0.186,2.237,0.555,3.232c0.369,0.996,0.908,1.854,1.613,2.575   c0.707,0.723,1.559,1.285,2.559,1.691c1,0.403,2.119,0.594,3.359,0.573c1.043-0.022,2.043-0.246,2.998-0.673   c0.956-0.426,1.815-1.088,2.576-1.985l-1.761-1.345c-0.37,0.568-0.886,1.05-1.548,1.443c-0.663,0.394-1.418,0.591-2.266,0.591   c-0.892,0.022-1.69-0.12-2.396-0.427c-0.707-0.307-1.311-0.732-1.809-1.279c-0.502-0.547-0.881-1.198-1.142-1.953   c-0.261-0.754-0.392-1.569-0.392-2.444s0.131-1.69,0.392-2.445c0.261-0.754,0.64-1.405,1.142-1.952   c0.498-0.547,1.102-0.973,1.809-1.28c0.706-0.306,1.505-0.448,2.396-0.426c0.848,0,1.603,0.196,2.266,0.59   c0.662,0.394,1.178,0.875,1.548,1.444L110.201,17.621z M93.412,23.625v-0.984c0-1.05-0.162-2.039-0.488-2.97   c-0.326-0.929-0.799-1.739-1.42-2.428c-0.619-0.689-1.385-1.241-2.298-1.657c-0.913-0.415-1.944-0.623-3.097-0.623   c-1.087,0-2.098,0.202-3.032,0.607c-0.935,0.405-1.749,0.968-2.445,1.69c-0.696,0.722-1.238,1.575-1.63,2.559   c-0.391,0.985-0.587,2.057-0.587,3.216c0,1.16,0.201,2.231,0.604,3.215c0.402,0.984,0.95,1.838,1.646,2.56   c0.695,0.722,1.527,1.285,2.494,1.69c0.968,0.403,2.015,0.606,3.146,0.606c1.261,0,2.439-0.252,3.537-0.755   s2.104-1.334,3.016-2.494l-1.662-1.378c-0.436,0.701-1.07,1.317-1.907,1.854s-1.832,0.804-2.983,0.804   c-0.76,0-1.467-0.142-2.118-0.427c-0.652-0.283-1.228-0.672-1.728-1.164c-0.5-0.493-0.903-1.078-1.207-1.756   c-0.305-0.679-0.489-1.4-0.554-2.167H93.412z M80.763,21.854c0-0.635,0.146-1.247,0.44-1.838c0.293-0.591,0.684-1.116,1.174-1.575   c0.488-0.459,1.06-0.826,1.711-1.099c0.652-0.274,1.325-0.41,2.021-0.41c1.564,0,2.781,0.454,3.65,1.361   c0.869,0.908,1.305,2.095,1.305,3.561H80.763z M76.264,15.356h-4.401v-4.331h-2.151v4.331h-3.228v1.969h3.228v9.679   c0,0.854,0.119,1.543,0.358,2.068c0.239,0.525,0.543,0.94,0.913,1.246c0.369,0.307,0.777,0.514,1.223,0.624   c0.445,0.108,0.874,0.164,1.287,0.164c1.13,0,2.097-0.187,2.902-0.558l-0.098-2.002c-0.326,0.176-0.685,0.317-1.076,0.427   c-0.391,0.11-0.772,0.164-1.141,0.164c-0.326,0-0.625-0.038-0.896-0.115c-0.272-0.076-0.506-0.213-0.701-0.41   c-0.196-0.196-0.348-0.476-0.457-0.837s-0.163-0.824-0.163-1.395v-9.056h4.401V15.356z M63.192,15.356h-2.152v15.357h2.152V15.356z    M63.192,8.318c-0.326-0.295-0.685-0.443-1.076-0.443s-0.75,0.148-1.076,0.443c-0.326,0.295-0.489,0.673-0.489,1.132   c0,0.459,0.163,0.837,0.489,1.132c0.326,0.295,0.685,0.443,1.076,0.443s0.75-0.148,1.076-0.443   c0.326-0.295,0.489-0.673,0.489-1.132C63.681,8.991,63.518,8.613,63.192,8.318"/>
</g>
</svg>