<svg id="Layer_1" data-name="Layer 1" xmlns="http://www.w3.org/2000/svg" viewBox="0 0 1080 1080">
  <defs>
    <style>
      .cls-1 {
        fill: #39a7df;
      }

      .cls-2 {
        fill: #fff;
      }

      .cls-3 {
        fill: #9b9a9a;
      }
    </style>
  </defs>
  <g>
    <circle class="cls-1" cx="540.3" cy="540.3" r="455.36" transform="translate(-223.8 540.3) rotate(-45)"/>
    <path class="cls-2" d="M857.36,478.83C855.13,415.72,801.61,363.15,738,363.15H552.36V282.64a25.22,25.22,0,1,0-24.11,0v80.52H342.61c-63.62,0-117.13,52.57-119.37,115.68-27.59,5.7-49.73,31.9-49.73,61.11v77.68c0,29.5,22.57,55.72,50.57,61.09,7.25,58.21,58.44,105.14,118.53,105.14H738c60.09,0,111.28-46.93,118.54-105.14,28-5.37,50.56-31.59,50.56-61.09V539.94C907.09,510.73,885,484.53,857.36,478.83Z"/>
    <path class="cls-3" d="M540.3,8.37C246.53,8.37,8.37,246.53,8.37,540.3s238.16,531.93,531.93,531.93,531.93-238.15,531.93-531.93S834.08,8.37,540.3,8.37Zm0,1033.32c-276.91,0-501.39-224.48-501.39-501.39S263.39,38.91,540.3,38.91s501.39,224.48,501.39,501.39S817.21,1041.69,540.3,1041.69Z"/>
    <path class="cls-1" d="M414.83,705.32q-3.69,0-7.44-.18c-69-.3-125-54.75-125-121.63,0-67.06,56.34-121.62,125.6-121.62,37.89,0,69.8,12.54,97.53,38.33,13.32,12.4,24.56,26.77,34.82,41.81,10.26-15,21.5-29.41,34.82-41.81,27.73-25.79,59.64-38.33,97.54-38.33,69.25,0,125.59,54.56,125.59,121.62,0,66.88-56,121.33-125,121.63-36.18,1.77-66.72-9.24-93.37-33.66-15.31-14-27.94-31.22-39.56-49.1-11.62,17.88-24.24,35.07-39.56,49.1-24.8,22.73-53,33.84-85.92,33.84ZM515.08,581.89c-12-19-24.13-36.56-38.83-50.24-19.68-18.31-41.38-26.84-68.29-26.84-45.59,0-82.67,35.31-82.67,78.7s37.08,78.7,82.67,78.7l1.12,0c25,1.32,44.33-5.59,62.67-22.4,16.25-14.89,29.59-35.65,43.33-58Zm157.59-77.08c-26.91,0-48.61,8.53-68.3,26.84-14.7,13.68-26.84,31.21-38.83,50.24,13.75,22.3,27.09,43.06,43.34,58,18.34,16.81,37.67,23.72,62.66,22.4l1.13,0c45.58,0,82.67-35.3,82.67-78.7s-37.09-78.7-82.67-78.7Z"/>
    <path class="cls-3" d="M445.65,571.46h-19.2v-19.2a4.15,4.15,0,0,0-4.14-4.13H406.47a4.14,4.14,0,0,0-4.13,4.13v19.2h-19.2A4.15,4.15,0,0,0,379,575.6v15.84a4.15,4.15,0,0,0,4.14,4.13h19.2v19.2a4.15,4.15,0,0,0,4.13,4.14h15.84a4.15,4.15,0,0,0,4.14-4.14v-19.2h19.2a4.14,4.14,0,0,0,4.13-4.13V575.6A4.15,4.15,0,0,0,445.65,571.46Z"/>
    <rect class="cls-3" x="633.88" y="571.46" width="70.78" height="24.11" rx="0.73"/>
    <g>
      <path class="cls-2" d="M540.31,214.25a46,46,0,0,0-29.9,11,3.47,3.47,0,0,0-.24,5.11,3.41,3.41,0,0,0,4.59.27,39.31,39.31,0,0,1,51.1,0,3.39,3.39,0,0,0,4.58-.26,3.49,3.49,0,0,0-.23-5.12A46.06,46.06,0,0,0,540.31,214.25Z"/>
      <path class="cls-2" d="M598.85,191.68a90.33,90.33,0,0,0-117.08,0A6.76,6.76,0,0,0,490.56,202a76.83,76.83,0,0,1,99.49,0,6.74,6.74,0,0,0,9.14-.36h0A6.77,6.77,0,0,0,598.85,191.68Z"/>
      <path class="cls-2" d="M540.31,194.36A65.85,65.85,0,0,0,497.5,210.1a5,5,0,0,0-.29,7.28,4.9,4.9,0,0,0,6.64.31,56.22,56.22,0,0,1,72.92,0,4.9,4.9,0,0,0,6.63-.3,5,5,0,0,0-.28-7.29A65.84,65.84,0,0,0,540.31,194.36Z"/>
    </g>
  </g>
</svg>
