<svg id="Layer_1" data-name="Layer 1" xmlns="http://www.w3.org/2000/svg" xmlns:xlink="http://www.w3.org/1999/xlink" viewBox="0 0 635.91 282.36"><defs><style>.cls-1{fill:#58595b;}.cls-2{fill:url(#Orange);}.cls-3{fill:url(#Orange-2);}.cls-4{fill:url(#Gold);}.cls-5{fill:url(#Gold-2);}.cls-6{fill:url(#Yellow_Green);}.cls-7{fill:url(#Yellow_Green-2);}.cls-8{fill:url(#Red_Orange);}.cls-9{fill:url(#Red_Orange-2);}.cls-10{fill:url(#Blue);}.cls-11{fill:url(#Blue-2);}.cls-12{fill:url(#Red_Orange-3);}.cls-13{fill:url(#Red_Orange-4);}.cls-14{fill:url(#Gold-3);}.cls-15{fill:url(#Gold-4);}.cls-16{fill:url(#Blue_Green);}.cls-17{fill:url(#Blue_Green-2);}.cls-18{fill:url(#Steel_Radial);}.cls-19{fill:url(#Steel_Radial-2);}.cls-20{fill:url(#Steel_Radial-3);}.cls-21{fill:url(#Steel_Radial-4);}.cls-22{fill:url(#Steel_Radial-5);}.cls-23,.cls-25{fill:#fff;}.cls-24{fill:url(#radial-gradient);}.cls-25{opacity:0.7;}.cls-26{fill:url(#Steel_Radial-6);}.cls-27{fill:url(#Steel_Radial-7);}.cls-28{fill:url(#Yellow_Green-3);}.cls-29{fill:url(#Red_Orange-5);}.cls-30{fill:url(#Orange-3);}.cls-31{fill:url(#Blue_Green-3);}.cls-32{fill:url(#Blue-3);}.cls-33{fill:url(#Gold-5);}.cls-34{fill:url(#Steel_Radial-8);}.cls-35{fill:url(#Steel_Radial-9);}.cls-36{fill:url(#radial-gradient-2);}</style><linearGradient id="Orange" x1="424.07" y1="74.63" x2="424.07" y2="210.64" gradientUnits="userSpaceOnUse"><stop offset="0" stop-color="#f69453"/><stop offset="0.5" stop-color="#f37521"/><stop offset="1" stop-color="#d4622a"/></linearGradient><linearGradient id="Orange-2" x1="424.07" y1="107.76" x2="424.07" y2="235.09" xlink:href="#Orange"/><linearGradient id="Gold" x1="461.54" y1="54.57" x2="461.54" y2="190.58" gradientUnits="userSpaceOnUse"><stop offset="0" stop-color="#ffe7a3"/><stop offset="0.5" stop-color="#ffca05"/><stop offset="1" stop-color="#faac18"/></linearGradient><linearGradient id="Gold-2" x1="483.09" y1="107.76" x2="483.09" y2="235.09" xlink:href="#Gold"/><linearGradient id="Yellow_Green" x1="542.1" y1="74.63" x2="542.1" y2="210.64" gradientUnits="userSpaceOnUse"><stop offset="0" stop-color="#d1e4a5"/><stop offset="0.5" stop-color="#acd479"/><stop offset="1" stop-color="#76b83f"/></linearGradient><linearGradient id="Yellow_Green-2" x1="542.1" y1="107.76" x2="542.1" y2="235.09" xlink:href="#Yellow_Green"/><linearGradient id="Red_Orange" x1="623.59" y1="74.63" x2="623.59" y2="210.64" gradientUnits="userSpaceOnUse"><stop offset="0" stop-color="#f37e5f"/><stop offset="0.5" stop-color="#ec1c24"/><stop offset="1" stop-color="#cf232a"/></linearGradient><linearGradient id="Red_Orange-2" x1="623.59" y1="107.76" x2="623.59" y2="235.09" xlink:href="#Red_Orange"/><linearGradient id="Blue" x1="350.37" y1="74.63" x2="350.37" y2="210.64" gradientUnits="userSpaceOnUse"><stop offset="0" stop-color="#2bc4f3"/><stop offset="0.5" stop-color="#00aeee"/><stop offset="1" stop-color="#0095da"/></linearGradient><linearGradient id="Blue-2" x1="350.37" y1="107.76" x2="350.37" y2="235.09" xlink:href="#Blue"/><linearGradient id="Red_Orange-3" x1="53.46" y1="74.63" x2="53.46" y2="210.64" xlink:href="#Red_Orange"/><linearGradient id="Red_Orange-4" x1="53.46" y1="107.76" x2="53.46" y2="235.09" xlink:href="#Red_Orange"/><linearGradient id="Gold-3" x1="126.72" y1="74.63" x2="126.72" y2="210.64" xlink:href="#Gold"/><linearGradient id="Gold-4" x1="126.72" y1="107.76" x2="126.72" y2="235.09" xlink:href="#Gold"/><linearGradient id="Blue_Green" x1="203.35" y1="74.63" x2="203.35" y2="210.64" gradientUnits="userSpaceOnUse"><stop offset="0.01" stop-color="#8ad0c3"/><stop offset="0.5" stop-color="#00b6a9"/><stop offset="1" stop-color="#00a185"/></linearGradient><linearGradient id="Blue_Green-2" x1="203.35" y1="107.76" x2="203.35" y2="235.09" xlink:href="#Blue_Green"/><radialGradient id="Steel_Radial" cx="271.86" cy="94.72" r="135.92" gradientUnits="userSpaceOnUse"><stop offset="0" stop-color="#e5e2df"/><stop offset="0" stop-color="#f1efee"/><stop offset="0" stop-color="#fff"/><stop offset="0.13" stop-color="#f0f0f1"/><stop offset="0.37" stop-color="#c9cacb"/><stop offset="0.52" stop-color="#adaeb0"/><stop offset="0.6" stop-color="#a3a5a7"/><stop offset="0.74" stop-color="#898d90"/><stop offset="0.91" stop-color="#5f6769"/><stop offset="1" stop-color="#465053"/></radialGradient><radialGradient id="Steel_Radial-2" cx="243.88" cy="56.24" r="17" xlink:href="#Steel_Radial"/><radialGradient id="Steel_Radial-3" cx="290.6" cy="91.47" r="76.21" xlink:href="#Steel_Radial"/><radialGradient id="Steel_Radial-4" cx="291.71" cy="89.54" r="124.85" xlink:href="#Steel_Radial"/><radialGradient id="Steel_Radial-5" cx="291.71" cy="89.54" r="124.85" xlink:href="#Steel_Radial"/><radialGradient id="radial-gradient" cx="282.87" cy="187.23" r="25.7" xlink:href="#Yellow_Green"/><radialGradient id="Steel_Radial-6" cx="291.72" cy="89.53" r="124.86" xlink:href="#Steel_Radial"/><radialGradient id="Steel_Radial-7" cx="291.71" cy="89.54" r="124.85" xlink:href="#Steel_Radial"/><linearGradient id="Yellow_Green-3" x1="357.75" y1="35.04" x2="387.71" y2="35.04" xlink:href="#Yellow_Green"/><linearGradient id="Red_Orange-5" x1="408.39" y1="42.57" x2="432" y2="42.57" xlink:href="#Red_Orange"/><linearGradient id="Orange-3" x1="315.97" y1="46.85" x2="339.59" y2="46.85" xlink:href="#Orange"/><linearGradient id="Blue_Green-3" x1="425.95" y1="50.83" x2="448.37" y2="50.83" xlink:href="#Blue_Green"/><linearGradient id="Blue-3" x1="284.92" y1="70.9" x2="307.34" y2="70.9" xlink:href="#Blue"/><linearGradient id="Gold-5" x1="471.57" y1="105.99" x2="489.99" y2="105.99" xlink:href="#Gold"/><radialGradient id="Steel_Radial-8" cx="347.24" cy="89.75" r="92.08" xlink:href="#Steel_Radial"/><radialGradient id="Steel_Radial-9" cx="277.39" cy="100.7" r="9.47" xlink:href="#Steel_Radial"/><radialGradient id="radial-gradient-2" cx="279.07" cy="94.21" r="11.65" xlink:href="#Yellow_Green"/></defs><path class="cls-1" d="M79.27,292.5h2.22V274.42H79.27v-2.7l10.53,0a6.7,6.7,0,0,1,2.67.53,7.06,7.06,0,0,1,2.17,1.45,6.84,6.84,0,0,1,2,4.86,4.73,4.73,0,0,1-.84,2.73,5.87,5.87,0,0,1-2.38,2,7.1,7.1,0,0,1,1.38.93,6.08,6.08,0,0,1,1,1.17,5.79,5.79,0,0,1,.67,1.34,4.5,4.5,0,0,1,.24,1.45,7,7,0,0,1-.53,2.73,7.15,7.15,0,0,1-1.46,2.21,6.91,6.91,0,0,1-2.17,1.48,6.64,6.64,0,0,1-2.67.54H79.27Zm5.25-18.08v7.64h5.31a3.38,3.38,0,0,0,1.38-.29,3.56,3.56,0,0,0,1.11-.79,4,4,0,0,0,.75-1.14,3.47,3.47,0,0,0,.28-1.35,4.32,4.32,0,0,0-.28-1.49,4.68,4.68,0,0,0-.76-1.3,3.81,3.81,0,0,0-1.12-.92,2.71,2.71,0,0,0-1.36-.36Zm0,10.33v7.75H90a2.73,2.73,0,0,0,1.37-.37,4.09,4.09,0,0,0,1.11-1,4.68,4.68,0,0,0,1-2.89,3.23,3.23,0,0,0-.28-1.32,3.8,3.8,0,0,0-.75-1.12,3.56,3.56,0,0,0-1.11-.79,3.29,3.29,0,0,0-1.36-.29Z" transform="translate(-21.54 -20.06)"/><path class="cls-1" d="M109.9,279.16h5.15V292.5h1.78v2.65h-4.66v-1.48a8.74,8.74,0,0,1-2.35,1.3,8.19,8.19,0,0,1-2.73.46,6.62,6.62,0,0,1-2.19-.35,4.13,4.13,0,0,1-1.66-1.08,5,5,0,0,1-1.06-1.86,8.5,8.5,0,0,1-.37-2.68v-7.65H99.65v-2.65h5.15v10a4,4,0,0,0,.86,2.78,3.11,3.11,0,0,0,2.43.94,6.65,6.65,0,0,0,2-.34,8.42,8.42,0,0,0,2-.94v-9.75H109.9Z" transform="translate(-21.54 -20.06)"/><path class="cls-1" d="M121.77,279.16H127V292.5h2.41v2.65h-7.6V292.5h2.29V281.81h-2.32Zm1.78-5.67a1.82,1.82,0,0,1,.16-.76,2.09,2.09,0,0,1,1.07-1.07,2.1,2.1,0,0,1,.79-.16,2,2,0,0,1,.76.16,1.92,1.92,0,0,1,.64.44,2.13,2.13,0,0,1,.43.63,1.82,1.82,0,0,1,.16.76,1.89,1.89,0,0,1-.16.79,2.28,2.28,0,0,1-.43.66,2,2,0,0,1-1.4.61,1.93,1.93,0,0,1-.79-.17,2,2,0,0,1-.64-.44,2.28,2.28,0,0,1-.43-.66A1.89,1.89,0,0,1,123.55,273.49Z" transform="translate(-21.54 -20.06)"/><path class="cls-1" d="M132.71,271.13h5.18V292.5h2.41v2.65h-7.59V292.5H135V273.79h-2.31Z" transform="translate(-21.54 -20.06)"/><path class="cls-1" d="M153.33,271.13h5V292.5h2.35v2.65h-5.22v-1.31a5.55,5.55,0,0,1-1.79,1.23,5.84,5.84,0,0,1-2.31.44,7.88,7.88,0,0,1-3-.57,6.64,6.64,0,0,1-2.43-1.65,7.55,7.55,0,0,1-1.6-2.67,10.38,10.38,0,0,1-.58-3.62,9.77,9.77,0,0,1,.55-3.37,7.5,7.5,0,0,1,1.58-2.6,7.23,7.23,0,0,1,2.45-1.66,8.26,8.26,0,0,1,3.2-.6,8.13,8.13,0,0,1,2.11.26,5.66,5.66,0,0,1,1.84.88v-6.12h-2.18ZM151.77,293a5.41,5.41,0,0,0,2.15-.38,4.89,4.89,0,0,0,1.59-1.13v-9a4.79,4.79,0,0,0-1.77-.94,7.17,7.17,0,0,0-2.06-.29,4.89,4.89,0,0,0-1.91.37,4.54,4.54,0,0,0-1.57,1.11,5.19,5.19,0,0,0-1.06,1.77,7.17,7.17,0,0,0-.38,2.41,8.26,8.26,0,0,0,.37,2.61,5.53,5.53,0,0,0,1,1.89,4.39,4.39,0,0,0,1.59,1.15A5.19,5.19,0,0,0,151.77,293Z" transform="translate(-21.54 -20.06)"/><path class="cls-1" d="M165.89,290.78l3.38,1.33-4,8.29-2.22-.82Z" transform="translate(-21.54 -20.06)"/><path class="cls-1" d="M195.18,277.92a7.63,7.63,0,0,0-2.74-2.76,7.38,7.38,0,0,0-3.81-1,7.15,7.15,0,0,0-3.27.75,8.23,8.23,0,0,0-2.54,2,9.63,9.63,0,0,0-1.64,2.95,10.42,10.42,0,0,0-.59,3.53,10.84,10.84,0,0,0,.65,3.88,8.52,8.52,0,0,0,1.69,2.81,8.94,8.94,0,0,0,2.48,1.87,6.83,6.83,0,0,0,3.22.75,7.58,7.58,0,0,0,4.25-1.18,9.23,9.23,0,0,0,3.09-3.89l2.71,1.29a9.41,9.41,0,0,1-2,3.21,10.61,10.61,0,0,1-3.47,2.51,11.26,11.26,0,0,1-9,0,11.06,11.06,0,0,1-3.57-2.57,11.37,11.37,0,0,1-2.39-3.95,13.91,13.91,0,0,1-.83-4.77,13.52,13.52,0,0,1,.83-4.73,11.78,11.78,0,0,1,2.31-3.86,10.82,10.82,0,0,1,3.56-2.59,10.42,10.42,0,0,1,4.46-1,10.11,10.11,0,0,1,3.71.62,10.3,10.3,0,0,1,2.64,1.45,10.55,10.55,0,0,1,1.88,1.83h1.64v2.74Z" transform="translate(-21.54 -20.06)"/><path class="cls-1" d="M201.77,287.16a10,10,0,0,1,.61-3.46A8,8,0,0,1,204,281a7.19,7.19,0,0,1,2.54-1.72,8.4,8.4,0,0,1,3.22-.61,8.51,8.51,0,0,1,3.25.61,7.24,7.24,0,0,1,2.52,1.7,7.85,7.85,0,0,1,1.64,2.67,10.35,10.35,0,0,1,0,6.89,8,8,0,0,1-1.64,2.69,7.25,7.25,0,0,1-2.52,1.76,8.88,8.88,0,0,1-6.52,0,7.31,7.31,0,0,1-2.52-1.73,8.15,8.15,0,0,1-1.64-2.68A10,10,0,0,1,201.77,287.16Zm3,0a7.21,7.21,0,0,0,.39,2.48,5.63,5.63,0,0,0,1.08,1.89,5,5,0,0,0,1.59,1.21,4.48,4.48,0,0,0,1.92.42,4.84,4.84,0,0,0,2-.41,4.59,4.59,0,0,0,1.6-1.2,5.79,5.79,0,0,0,1.07-1.89,7.81,7.81,0,0,0,.38-2.5,8.14,8.14,0,0,0-.38-2.58,5.75,5.75,0,0,0-1.06-1.89,4.43,4.43,0,0,0-1.6-1.14,5.22,5.22,0,0,0-2-.38,4.94,4.94,0,0,0-1.92.38,4.66,4.66,0,0,0-1.59,1.14,5.44,5.44,0,0,0-1.08,1.89A7.61,7.61,0,0,0,204.82,287.16Z" transform="translate(-21.54 -20.06)"/><path class="cls-1" d="M231.12,271.13h5V292.5h2.35v2.65H233.3v-1.31a5.66,5.66,0,0,1-1.79,1.23,5.85,5.85,0,0,1-2.32.44,7.87,7.87,0,0,1-3-.57,6.73,6.73,0,0,1-2.43-1.65,7.55,7.55,0,0,1-1.6-2.67,10.38,10.38,0,0,1-.58-3.62,9.77,9.77,0,0,1,.55-3.37,7.65,7.65,0,0,1,1.58-2.6,7.17,7.17,0,0,1,2.46-1.66,8.75,8.75,0,0,1,5.3-.34,5.66,5.66,0,0,1,1.84.88v-6.12h-2.18ZM229.56,293a5.41,5.41,0,0,0,2.15-.38,4.89,4.89,0,0,0,1.59-1.13v-9a4.79,4.79,0,0,0-1.77-.94,7.17,7.17,0,0,0-2.06-.29,4.89,4.89,0,0,0-1.91.37,4.54,4.54,0,0,0-1.57,1.11,5.19,5.19,0,0,0-1.06,1.77,6.93,6.93,0,0,0-.38,2.41,8.26,8.26,0,0,0,.37,2.61,5.53,5.53,0,0,0,1,1.89,4.3,4.3,0,0,0,1.59,1.15A5.16,5.16,0,0,0,229.56,293Z" transform="translate(-21.54 -20.06)"/><path class="cls-1" d="M244.77,287.52a7.92,7.92,0,0,0,.1,1.25,7,7,0,0,0,.29,1.07,4.38,4.38,0,0,0,1.83,2.32,5.22,5.22,0,0,0,2.85.78,8.64,8.64,0,0,0,2.43-.34,11.89,11.89,0,0,0,2.48-1.09l1.16,2a12.77,12.77,0,0,1-3.17,1.6,10.46,10.46,0,0,1-3.3.53,8.18,8.18,0,0,1-3-.54,6.48,6.48,0,0,1-2.38-1.61,7.34,7.34,0,0,1-1.55-2.65,11,11,0,0,1-.57-3.71,10.7,10.7,0,0,1,.48-3.23,7.84,7.84,0,0,1,1.43-2.66,6.78,6.78,0,0,1,2.35-1.79,7.49,7.49,0,0,1,3.27-.67,7.25,7.25,0,0,1,3,.55,5.6,5.6,0,0,1,2,1.45,6.42,6.42,0,0,1,1.16,2.06,12.83,12.83,0,0,1,.55,2.36c.05.39.08.79.1,1.19s0,.8,0,1.17Zm4.49-6.37a4.94,4.94,0,0,0-1.75.29,3.64,3.64,0,0,0-1.27.81,4,4,0,0,0-.84,1.31,7.65,7.65,0,0,0-.47,1.73h8.29a7.66,7.66,0,0,0-.29-1.66,3.51,3.51,0,0,0-.68-1.3,3,3,0,0,0-1.19-.87A4.54,4.54,0,0,0,249.26,281.15Z" transform="translate(-21.54 -20.06)"/><path class="cls-1" d="M278.09,293.67a8.12,8.12,0,0,1-2,1.39,5.64,5.64,0,0,1-2.51.54,6,6,0,0,1-2.15-.37,5.33,5.33,0,0,1-1.7-1,4.69,4.69,0,0,1-1.1-1.49,4.3,4.3,0,0,1-.39-1.81,5,5,0,0,1,.3-1.8,4.62,4.62,0,0,1,.8-1.37,4.73,4.73,0,0,1,1.17-1,8.13,8.13,0,0,1,1.41-.64,9.58,9.58,0,0,1,1.5-.34,12.5,12.5,0,0,1,1.46-.1c.74,0,1.36,0,1.86.07a12,12,0,0,1,1.38.2v-1.32a4.12,4.12,0,0,0-.24-1.47,2.73,2.73,0,0,0-.7-1,2.83,2.83,0,0,0-1.07-.61,4.38,4.38,0,0,0-1.4-.21,8.9,8.9,0,0,0-1.39.11,9,9,0,0,0-1.24.26,8.17,8.17,0,0,0-1.06.37,4.55,4.55,0,0,0-.83.44l-.94-2a9.23,9.23,0,0,1,1.25-.69,11,11,0,0,1,1.42-.54,13.09,13.09,0,0,1,1.53-.36,10.11,10.11,0,0,1,1.54-.13,8.75,8.75,0,0,1,2.5.33,5,5,0,0,1,1.88,1,4.43,4.43,0,0,1,1.19,1.77,7.06,7.06,0,0,1,.42,2.57v8h1.77v2.65h-4.65Zm-3.89-.48a4.45,4.45,0,0,0,1.14-.14,6.35,6.35,0,0,0,1.09-.37,7.29,7.29,0,0,0,.94-.56,3.87,3.87,0,0,0,.72-.66l0-3.61h-3.34a5.6,5.6,0,0,0-1.52.19,3.7,3.7,0,0,0-1.19.54,2.53,2.53,0,0,0-.78.88,2.59,2.59,0,0,0-.27,1.2,2.38,2.38,0,0,0,.23,1.1,2,2,0,0,0,.66.79,3,3,0,0,0,1,.48A4.75,4.75,0,0,0,274.2,293.19Z" transform="translate(-21.54 -20.06)"/><path class="cls-1" d="M297.3,292.5h2.26v-7.3a3.78,3.78,0,0,0-.94-2.79,3.61,3.61,0,0,0-2.68-1,4.7,4.7,0,0,0-2,.48,9.94,9.94,0,0,0-1.93,1.19v9.37h2.26v2.65h-7.48V292.5H289V281.81h-2.23v-2.65h5.1V281h0a11.71,11.71,0,0,1,1.09-.85,7.57,7.57,0,0,1,1.21-.69,6.65,6.65,0,0,1,1.32-.46,5.68,5.68,0,0,1,1.44-.17,7.29,7.29,0,0,1,2.32.35A4.65,4.65,0,0,1,301,280.3a5.06,5.06,0,0,1,1.12,1.86,8.28,8.28,0,0,1,.39,2.68v7.66h2.22v2.65H297.3Z" transform="translate(-21.54 -20.06)"/><path class="cls-1" d="M318.08,271.13h5.05V292.5h2.35v2.65h-5.22v-1.31a5.66,5.66,0,0,1-1.79,1.23,5.85,5.85,0,0,1-2.32.44,7.87,7.87,0,0,1-3-.57,6.64,6.64,0,0,1-2.43-1.65,7.55,7.55,0,0,1-1.6-2.67,10.38,10.38,0,0,1-.58-3.62,9.77,9.77,0,0,1,.55-3.37,7.5,7.5,0,0,1,1.58-2.6,7.23,7.23,0,0,1,2.45-1.66,8.26,8.26,0,0,1,3.2-.6,8.13,8.13,0,0,1,2.11.26,5.66,5.66,0,0,1,1.84.88v-6.12h-2.18ZM316.52,293a5.41,5.41,0,0,0,2.15-.38,4.89,4.89,0,0,0,1.59-1.13v-9a4.76,4.76,0,0,0-1.78-.94,7.05,7.05,0,0,0-2.05-.29,4.85,4.85,0,0,0-1.91.37,4.54,4.54,0,0,0-1.57,1.11,5.19,5.19,0,0,0-1.06,1.77,6.92,6.92,0,0,0-.39,2.41,8.25,8.25,0,0,0,.38,2.61,5.36,5.36,0,0,0,1,1.89,4.22,4.22,0,0,0,1.59,1.15A5.16,5.16,0,0,0,316.52,293Z" transform="translate(-21.54 -20.06)"/><path class="cls-1" d="M337.38,271.75h9.47a9.87,9.87,0,0,1,2.9.41,6.53,6.53,0,0,1,2.28,1.2,5.35,5.35,0,0,1,1.49,2,6.6,6.6,0,0,1,.54,2.74,5.65,5.65,0,0,1-.53,2.41,6,6,0,0,1-1.48,2,7.17,7.17,0,0,1-2.29,1.34,8.49,8.49,0,0,1-3,.5h-4.15v8.18H345v2.65h-7.6V292.5h2.23V274.42h-2.23Zm5.26,2.67v7.36h4.21a5.18,5.18,0,0,0,1.61-.24,3.65,3.65,0,0,0,1.27-.7,3.19,3.19,0,0,0,.83-1.16,4,4,0,0,0,.3-1.6,3.49,3.49,0,0,0-1.05-2.7,4.86,4.86,0,0,0-3.35-1Z" transform="translate(-21.54 -20.06)"/><path class="cls-1" d="M357,271.13h5.18V292.5h2.41v2.65H357V292.5h2.31V273.79H357Z" transform="translate(-21.54 -20.06)"/><path class="cls-1" d="M377.62,293.67a8.12,8.12,0,0,1-2,1.39,5.64,5.64,0,0,1-2.51.54,6,6,0,0,1-2.15-.37,5.33,5.33,0,0,1-1.7-1,4.69,4.69,0,0,1-1.1-1.49,4.3,4.3,0,0,1-.39-1.81,5,5,0,0,1,.3-1.8,4.41,4.41,0,0,1,.8-1.37,4.73,4.73,0,0,1,1.17-1,8.13,8.13,0,0,1,1.41-.64,9.58,9.58,0,0,1,1.5-.34,12.5,12.5,0,0,1,1.46-.1c.74,0,1.36,0,1.86.07a12,12,0,0,1,1.38.2l0-1.32a4.11,4.11,0,0,0-.25-1.47,2.74,2.74,0,0,0-1.77-1.64,4.42,4.42,0,0,0-1.4-.21,9.83,9.83,0,0,0-3.7.74,4.79,4.79,0,0,0-.82.44l-.94-2a9.23,9.23,0,0,1,1.25-.69,11,11,0,0,1,1.42-.54,13.58,13.58,0,0,1,1.53-.36,10.11,10.11,0,0,1,1.54-.13,8.75,8.75,0,0,1,2.5.33,5,5,0,0,1,1.88,1,4.43,4.43,0,0,1,1.19,1.77,7.06,7.06,0,0,1,.42,2.57v8h1.77v2.65h-4.65Zm-3.89-.48a4.45,4.45,0,0,0,1.14-.14,6,6,0,0,0,1.08-.37,6.25,6.25,0,0,0,.95-.56,4.22,4.22,0,0,0,.72-.66l0-3.61h-3.33a5.62,5.62,0,0,0-1.53.19,3.7,3.7,0,0,0-1.19.54,2.53,2.53,0,0,0-.78.88,2.59,2.59,0,0,0-.28,1.2,2.38,2.38,0,0,0,.24,1.1,2.08,2.08,0,0,0,.65.79,3.15,3.15,0,0,0,1,.48A4.87,4.87,0,0,0,373.73,293.19Z" transform="translate(-21.54 -20.06)"/><path class="cls-1" d="M385.24,279.16h6.06v2.65h-1.9L393.16,292l3.92-10.21h-1.89v-2.65h6.07v2.65h-1.65l-7.12,18h2.19v2.65h-6.45v-2.65h1.95l1.69-4.4-5.34-13.56h-1.29Z" transform="translate(-21.54 -20.06)"/><path class="cls-1" d="M411.72,279.16h5.06v2.65H416L418.83,292l3.83-12.86h2.41L428.73,292l2.92-10.18h-.93v-2.65h5.06v2.65h-1.37L430,295.4h-2.65l-3.62-12.77-3.62,12.77h-2.69l-4.35-13.59h-1.37Z" transform="translate(-21.54 -20.06)"/><path class="cls-1" d="M438.94,279.16h5.22V292.5h2.4v2.65H439V292.5h2.28V281.81h-2.31Zm1.77-5.67a2,2,0,0,1,.16-.76,2.16,2.16,0,0,1,.44-.63,2,2,0,0,1,.63-.44,2.15,2.15,0,0,1,.8-.16,2,2,0,0,1,.76.16,2,2,0,0,1,.63.44,2,2,0,0,1,.43.63,1.82,1.82,0,0,1,.16.76,1.89,1.89,0,0,1-.16.79,2.09,2.09,0,0,1-.43.66,1.84,1.84,0,0,1-.63.44,1.87,1.87,0,0,1-.76.17,2,2,0,0,1-.8-.17,1.84,1.84,0,0,1-.63-.44,2.31,2.31,0,0,1-.44-.66A2.06,2.06,0,0,1,440.71,273.49Z" transform="translate(-21.54 -20.06)"/><path class="cls-1" d="M454.63,279.16h3.75v2.33h-3.79l0,9.23a4.62,4.62,0,0,0,.21,1.53,1.39,1.39,0,0,0,.7.81,2.51,2.51,0,0,0,1.08.22,4.9,4.9,0,0,0,1.14-.11,6,6,0,0,0,1.08-.39l.66,1.92a7.69,7.69,0,0,1-1.55.61,7.35,7.35,0,0,1-1.93.23,5.9,5.9,0,0,1-1.83-.26,2.9,2.9,0,0,1-1.31-.85,3.85,3.85,0,0,1-.8-1.62,10,10,0,0,1-.26-2.52l.05-8.8h-2.55v-2.33h2.57v-3.83l2.82-1.33Z" transform="translate(-21.54 -20.06)"/><path class="cls-1" d="M462.76,271.13h5.07v9.79h.09a6.3,6.3,0,0,1,1-.81,8.49,8.49,0,0,1,1.18-.66,6.88,6.88,0,0,1,1.28-.43,6.23,6.23,0,0,1,1.39-.15,7.27,7.27,0,0,1,2.31.35,4.58,4.58,0,0,1,1.76,1.08,4.8,4.8,0,0,1,1.12,1.86,8,8,0,0,1,.39,2.68v7.66h2.41v2.65h-7.59V292.5h2.19v-7.3a3.82,3.82,0,0,0-.93-2.79,3.61,3.61,0,0,0-2.68-1,4.83,4.83,0,0,0-2,.47,9.19,9.19,0,0,0-1.91,1.18v9.39h2.31v2.65h-7.59V292.5H465V273.79h-2.19Z" transform="translate(-21.54 -20.06)"/><path class="cls-1" d="M492.61,271.75h9.74a9.78,9.78,0,0,1,2.88.41,6.53,6.53,0,0,1,2.28,1.2,5.4,5.4,0,0,1,1.51,2,6.6,6.6,0,0,1,.54,2.74,5,5,0,0,1-.32,1.73,5.82,5.82,0,0,1-.88,1.6,6.84,6.84,0,0,1-1.33,1.3,6.33,6.33,0,0,1-1.69.88,3.35,3.35,0,0,1,.78.49,3.63,3.63,0,0,1,.74.77,5.8,5.8,0,0,1,.64,1,7,7,0,0,1,.46,1.24l1.29,5.1h2l0,2.93h-4.55L505,288a5.52,5.52,0,0,0-1.45-2.82,3.83,3.83,0,0,0-2.68-.9h-3v8.18h2.34v2.65h-7.59V292.5h2.22V274.42h-2.22Zm5.25,2.67v7.36h4.49a5.14,5.14,0,0,0,1.61-.23,3.47,3.47,0,0,0,1.27-.69,3.24,3.24,0,0,0,.83-1.15,4,4,0,0,0,.3-1.6,3.53,3.53,0,0,0-1.05-2.72,4.77,4.77,0,0,0-3.33-1Z" transform="translate(-21.54 -20.06)"/><path class="cls-1" d="M515,287.16a9.77,9.77,0,0,1,.61-3.46A7.88,7.88,0,0,1,517.3,281a7.15,7.15,0,0,1,2.53-1.72,8.45,8.45,0,0,1,3.23-.61,8.59,8.59,0,0,1,3.25.61,7.24,7.24,0,0,1,2.52,1.7,7.85,7.85,0,0,1,1.64,2.67,10.52,10.52,0,0,1,0,6.89,8,8,0,0,1-1.64,2.69,7.25,7.25,0,0,1-2.52,1.76,8.91,8.91,0,0,1-6.53,0,7.37,7.37,0,0,1-2.51-1.73,8,8,0,0,1-1.64-2.68A10,10,0,0,1,515,287.16Zm3,0a7.21,7.21,0,0,0,.4,2.48,5.63,5.63,0,0,0,1.08,1.89,4.87,4.87,0,0,0,1.58,1.21,4.56,4.56,0,0,0,1.93.42,4.87,4.87,0,0,0,2-.41,4.68,4.68,0,0,0,1.6-1.2,5.77,5.77,0,0,0,1.06-1.89,7.54,7.54,0,0,0,.39-2.5,7.86,7.86,0,0,0-.39-2.58,5.73,5.73,0,0,0-1.05-1.89,4.43,4.43,0,0,0-1.6-1.14,5.3,5.3,0,0,0-2-.38,5,5,0,0,0-1.93.38,4.53,4.53,0,0,0-1.58,1.14,5.44,5.44,0,0,0-1.08,1.89A7.6,7.6,0,0,0,518.07,287.16Z" transform="translate(-21.54 -20.06)"/><path class="cls-1" d="M534.28,271.13h5.19v9.36a8.72,8.72,0,0,1,2.22-1.26,7.09,7.09,0,0,1,2.49-.46,7,7,0,0,1,2.88.59,6.64,6.64,0,0,1,2.27,1.65,7.57,7.57,0,0,1,1.47,2.56,9.83,9.83,0,0,1,.53,3.29,10,10,0,0,1-.59,3.5,8.08,8.08,0,0,1-1.63,2.69,7,7,0,0,1-2.48,1.74,7.9,7.9,0,0,1-3.15.61,7.09,7.09,0,0,1-2.23-.35,6.19,6.19,0,0,1-1.78-.9v1H536.6V273.79h-2.32Zm9.14,10.18a5.21,5.21,0,0,0-2.16.46,5.55,5.55,0,0,0-1.79,1.25v8.6a4.2,4.2,0,0,0,1.45.9,6.43,6.43,0,0,0,2.41.39,5,5,0,0,0,1.9-.37,4.39,4.39,0,0,0,1.6-1.12,5.26,5.26,0,0,0,1.11-1.86,7.29,7.29,0,0,0,.42-2.59,6.92,6.92,0,0,0-.39-2.41,5.37,5.37,0,0,0-1.07-1.77,4.54,4.54,0,0,0-1.57-1.11A4.85,4.85,0,0,0,543.42,281.31Z" transform="translate(-21.54 -20.06)"/><path class="cls-1" d="M554.86,287.16a10,10,0,0,1,.61-3.46,8,8,0,0,1,1.66-2.68,7.15,7.15,0,0,1,2.53-1.72,8.91,8.91,0,0,1,6.48,0,7.37,7.37,0,0,1,2.53,1.7,8,8,0,0,1,1.63,2.67,10.35,10.35,0,0,1,0,6.89,8.18,8.18,0,0,1-1.63,2.69,7.39,7.39,0,0,1-2.53,1.76,8.88,8.88,0,0,1-6.52,0,7.31,7.31,0,0,1-2.52-1.73,7.81,7.81,0,0,1-1.63-2.68A10,10,0,0,1,554.86,287.16Zm3,0a7.21,7.21,0,0,0,.4,2.48,5.63,5.63,0,0,0,1.08,1.89,4.91,4.91,0,0,0,1.59,1.21,4.48,4.48,0,0,0,1.92.42,4.84,4.84,0,0,0,2-.41,4.59,4.59,0,0,0,1.6-1.2,5.79,5.79,0,0,0,1.07-1.89,7.54,7.54,0,0,0,.38-2.5,7.87,7.87,0,0,0-.38-2.58,5.57,5.57,0,0,0-1.06-1.89,4.43,4.43,0,0,0-1.6-1.14,5.26,5.26,0,0,0-2-.38,4.94,4.94,0,0,0-1.92.38,4.57,4.57,0,0,0-1.59,1.14,5.44,5.44,0,0,0-1.08,1.89A7.6,7.6,0,0,0,557.9,287.16Z" transform="translate(-21.54 -20.06)"/><path class="cls-1" d="M579.41,279.16h3.75v2.33h-3.78l0,9.23a4.35,4.35,0,0,0,.22,1.53,1.36,1.36,0,0,0,.7.81,2.45,2.45,0,0,0,1.08.22,4.9,4.9,0,0,0,1.14-.11,6,6,0,0,0,1.08-.39l.66,1.92a7.55,7.55,0,0,1-1.56.61,7.21,7.21,0,0,1-1.92.23,5.92,5.92,0,0,1-1.84-.26,3,3,0,0,1-1.31-.85,3.84,3.84,0,0,1-.79-1.62,9.9,9.9,0,0,1-.27-2.52l.05-8.8H574v-2.33h2.58v-3.83l2.81-1.33Z" transform="translate(-21.54 -20.06)"/><path class="cls-1" d="M596.27,282.35a2.4,2.4,0,0,0-.78-.74,3.73,3.73,0,0,0-1.07-.42,5,5,0,0,0-1.14-.13,4.51,4.51,0,0,0-1.14.14,2.54,2.54,0,0,0-.88.4,2,2,0,0,0-.58.64,1.69,1.69,0,0,0-.21.84,1.65,1.65,0,0,0,.49,1.27,4.41,4.41,0,0,0,1.62.88l3.08,1.08a6,6,0,0,1,2.88,1.8,4.24,4.24,0,0,1,.91,2.73,4.5,4.5,0,0,1-.42,2,4.39,4.39,0,0,1-1.2,1.51,5.67,5.67,0,0,1-1.88,1,8.08,8.08,0,0,1-2.44.35,6.66,6.66,0,0,1-3-.6,4.55,4.55,0,0,1-1.81-1.59h-1.6v-2.66h3.19a2.17,2.17,0,0,0,.29,1.14,2.21,2.21,0,0,0,.76.76,3.24,3.24,0,0,0,1.06.43,5.08,5.08,0,0,0,2.37,0,3.51,3.51,0,0,0,1-.43,2.31,2.31,0,0,0,.67-.69,1.75,1.75,0,0,0,.25-.91,1.9,1.9,0,0,0-.5-1.32,4.5,4.5,0,0,0-1.71-1l-3.06-1.14a6.63,6.63,0,0,1-2.77-1.69,3.75,3.75,0,0,1-.9-2.57,4.64,4.64,0,0,1,.38-1.88,4.06,4.06,0,0,1,1.1-1.5,5.09,5.09,0,0,1,1.75-1,7.14,7.14,0,0,1,2.36-.36,7.52,7.52,0,0,1,2.87.48,5.22,5.22,0,0,1,2.08,1.63h1.5v2.66h-3.16A2,2,0,0,0,596.27,282.35Z" transform="translate(-21.54 -20.06)"/><path class="cls-2" d="M435,255.37a1.65,1.65,0,0,1-1.65-1.66V202.28H414.49v51.43a1.66,1.66,0,0,1-1.66,1.66H393.37a1.66,1.66,0,0,1-1.66-1.66V129.84a1.66,1.66,0,0,1,1.66-1.66h19.46a1.66,1.66,0,0,1,1.66,1.66v51.43H433.3V129.84a1.65,1.65,0,0,1,1.65-1.66h19.82a1.66,1.66,0,0,1,1.66,1.66V253.71a1.66,1.66,0,0,1-1.66,1.66Z" transform="translate(-21.54 -20.06)"/><path class="cls-3" d="M412.83,253.71H393.37V129.84h19.46v53.09H435V129.84h19.82V253.71H435V200.62H412.83Z" transform="translate(-21.54 -20.06)"/><rect class="cls-4" x="450.15" y="108.12" width="22.78" height="127.19" rx="1.66"/><path class="cls-5" d="M473.35,129.84h19.47V253.71H473.35Z" transform="translate(-21.54 -20.06)"/><path class="cls-6" d="M553,255.37a1.67,1.67,0,0,1-1.61-1.24l-21-78.81v78.39a1.66,1.66,0,0,1-1.66,1.66H511.22a1.65,1.65,0,0,1-1.65-1.66V129.84a1.65,1.65,0,0,1,1.65-1.66h24.42a1.68,1.68,0,0,1,1.61,1.23L554,192.6V129.84a1.66,1.66,0,0,1,1.66-1.66H573a1.66,1.66,0,0,1,1.66,1.66V253.71a1.66,1.66,0,0,1-1.66,1.66Z" transform="translate(-21.54 -20.06)"/><path class="cls-7" d="M529.1,164h-.36v89.72H511.22V129.84h24.42L555.29,204h.35V129.84H573V253.71H553Z" transform="translate(-21.54 -20.06)"/><path class="cls-8" d="M635.8,255.37a1.65,1.65,0,0,1-1.54-1.07l-17.63-46-4.12,7.75v37.63a1.66,1.66,0,0,1-1.66,1.66H591.39a1.66,1.66,0,0,1-1.66-1.66V129.84a1.66,1.66,0,0,1,1.66-1.66h19.46a1.66,1.66,0,0,1,1.66,1.66v46.93l22.32-47.63a1.65,1.65,0,0,1,1.5-1H655.8a1.67,1.67,0,0,1,1.49,2.39l-26.76,54.55,26.81,68a1.66,1.66,0,0,1-1.54,2.27Z" transform="translate(-21.54 -20.06)"/><path class="cls-9" d="M616.87,204.34l-6,11.32v38.05H591.39V129.84h19.46v53.62h.36l25.12-53.62H655.8l-27.08,55.21,27.08,68.66h-20Z" transform="translate(-21.54 -20.06)"/><path class="cls-10" d="M340.63,255.37a1.65,1.65,0,0,1-1.65-1.66V149.19h-18.7a1.65,1.65,0,0,1-1.65-1.65v-17.7a1.65,1.65,0,0,1,1.65-1.66h60.17a1.66,1.66,0,0,1,1.66,1.66v17.7a1.66,1.66,0,0,1-1.66,1.65H361.76V253.71a1.66,1.66,0,0,1-1.66,1.66Z" transform="translate(-21.54 -20.06)"/><path class="cls-11" d="M320.28,129.84h60.17v17.7H360.1V253.71H340.63V147.54H320.28Z" transform="translate(-21.54 -20.06)"/><path class="cls-12" d="M63.9,255.37a1.65,1.65,0,0,1-1.57-1.14l-.06-.16c-1.08-3.24-1.79-5.39-1.79-15.58V219c0-11.74-4.25-14.09-11.09-14.09H44.32v48.77a1.65,1.65,0,0,1-1.65,1.66H23.2a1.66,1.66,0,0,1-1.66-1.66V129.84a1.66,1.66,0,0,1,1.66-1.66H52.58c20.8,0,30.5,9.58,30.5,30.15v9.73c0,12.17-3.66,20.41-11.15,25.07C82,199,83.25,210.86,83.25,219.56v19.11c0,5.67.15,10,2,14.39a1.69,1.69,0,0,1-.15,1.57,1.66,1.66,0,0,1-1.38.74ZM50.27,183.92c7.12,0,10-3.31,10-11.43V160.28c0-9.2-3.3-11.09-8.26-11.09H44.32v34.73Z" transform="translate(-21.54 -20.06)"/><path class="cls-13" d="M63.9,253.71c-1.06-3.19-1.77-5.13-1.77-15.22V219c0-11.51-3.89-15.75-12.74-15.75H42.67v50.43H23.2V129.84H52.58c20.17,0,28.84,9.38,28.84,28.49v9.73c0,12.74-4.07,20.88-12.74,24.95v.36c9.73,4.07,12.92,13.27,12.92,26.19v19.11c0,6,.17,10.44,2.12,15ZM42.67,147.54v38h7.6c7.26,0,11.68-3.18,11.68-13.09V160.28c0-8.85-3-12.74-9.91-12.74Z" transform="translate(-21.54 -20.06)"/><path class="cls-14" d="M126.72,256.78c-19.83,0-31.2-11.95-31.2-32.8V159.57c0-20.85,11.37-32.8,31.2-32.8s31.21,12,31.21,32.8V224C157.93,244.83,146.56,256.78,126.72,256.78Zm0-109c-3.92,0-8.43,1.2-8.43,10.55v66.89c0,9.36,4.51,10.55,8.43,10.55s8.44-1.19,8.44-10.55V158.33C135.16,149,130.65,147.78,126.72,147.78Z" transform="translate(-21.54 -20.06)"/><path class="cls-15" d="M97.17,159.57c0-19.82,10.44-31.15,29.55-31.15s29.55,11.33,29.55,31.15V224c0,19.82-10.44,31.14-29.55,31.14S97.17,243.8,97.17,224Zm19.47,65.65c0,8.85,3.89,12.21,10.08,12.21s10.09-3.36,10.09-12.21V158.33c0-8.85-3.89-12.21-10.09-12.21s-10.08,3.36-10.08,12.21Z" transform="translate(-21.54 -20.06)"/><path class="cls-16" d="M173.26,255.37a1.65,1.65,0,0,1-1.65-1.66V129.84a1.65,1.65,0,0,1,1.65-1.66h29.38c20.81,0,30.5,9.58,30.5,30.15v4.42c0,12.22-3.47,20.21-10.87,24.84,8.62,4.55,12.82,13.31,12.82,26.66v10.09c0,20-11.08,31-31.21,31Zm30.62-21c5.2,0,8.43-1.77,8.43-10.55V213c0-11.31-3.67-13.39-10.91-13.39h-7v34.74Zm-3.54-55.74c7.12,0,10-3.32,10-11.44v-6.9c0-9.2-3.3-11.09-8.25-11.09h-7.72v29.43Z" transform="translate(-21.54 -20.06)"/><path class="cls-17" d="M231.48,158.33v4.42c0,12.75-3.89,20.71-12.56,24.78v.35c10.44,4.07,14.51,13.28,14.51,26.37v10.09c0,19.11-10.08,29.37-29.55,29.37H173.26V129.84h29.38C222.82,129.84,231.48,139.22,231.48,158.33Zm-38.75-10.79v32.73h7.61c7.26,0,11.68-3.18,11.68-13.09v-6.9c0-8.85-3-12.74-9.91-12.74Zm0,50.43v38h11.15c6.55,0,10.09-3,10.09-12.2V213c0-11.5-3.72-15-12.57-15Z" transform="translate(-21.54 -20.06)"/><path class="cls-18" d="M307.72,249.34h-6.81v-21.9H255.75v21.9h-6.81a4.7,4.7,0,1,0,0,9.4H268V236.63h20.62v22.11h19.08a4.7,4.7,0,1,0,0-9.4Z" transform="translate(-21.54 -20.06)"/><polygon class="cls-19" points="256.96 108.55 253.42 98.6 259.87 95.57 251.68 86.39 256.36 80.64 257.34 81.43 253.33 86.35 261.93 96 254.99 99.25 258.14 108.13 256.96 108.55"/><path class="cls-20" d="M278.11,123.45c-17.44,0-27,10.34-27,28.43v11.34h53.94V151.88C305.08,133.79,295.56,123.45,278.11,123.45ZM267.5,153.23a5.28,5.28,0,1,1,5.27-5.28A5.28,5.28,0,0,1,267.5,153.23Zm21.13,0a5.28,5.28,0,1,1,5.28-5.28A5.28,5.28,0,0,1,288.63,153.23Z" transform="translate(-21.54 -20.06)"/><path class="cls-21" d="M237.94,213a6.47,6.47,0,1,1-6.47-6.47A6.47,6.47,0,0,1,237.94,213Z" transform="translate(-21.54 -20.06)"/><path class="cls-22" d="M351.86,155.38c-10.32,19.91-40.93,11.51-41.29,11.48-12.93-1.14-56.27-.3-59.37,0-6.83.65-21.14,3.09-26.47,7.25a12.48,12.48,0,0,0-4.66,10.14c0,18.27,8.69,30.21,9.06,30.71l5.33-3.94a49.08,49.08,0,0,1-7.76-26.77,6.46,6.46,0,0,1,2.39-5.15c3.41-3,9.76-4.43,16.57-5V216c0,21.77,11.47,34.2,32.45,34.2s32.46-12.43,32.46-34.2V175.52a30.1,30.1,0,0,0,7.94,1.11c12.95,0,31.32-2.94,39.24-18.19Z" transform="translate(-21.54 -20.06)"/><path class="cls-23" d="M296.13,201.55a17,17,0,1,1-17-17A17,17,0,0,1,296.13,201.55Z" transform="translate(-21.54 -20.06)"/><path class="cls-24" d="M292.25,201.55A13.21,13.21,0,1,1,279,188.34,13.2,13.2,0,0,1,292.25,201.55Z" transform="translate(-21.54 -20.06)"/><path class="cls-25" d="M283.46,193c0,1.6-2,2.89-4.42,2.89s-4.41-1.29-4.41-2.89,2-2.89,4.41-2.89S283.46,191.35,283.46,193Z" transform="translate(-21.54 -20.06)"/><path class="cls-26" d="M231.47,182.1a8.82,8.82,0,1,1-8.81-8.81A8.82,8.82,0,0,1,231.47,182.1Z" transform="translate(-21.54 -20.06)"/><path class="cls-27" d="M336.59,173.29a8.81,8.81,0,1,1-8.81-8.82A8.81,8.81,0,0,1,336.59,173.29Z" transform="translate(-21.54 -20.06)"/><path class="cls-28" d="M387.71,35a15,15,0,1,1-15-15A15,15,0,0,1,387.71,35Z" transform="translate(-21.54 -20.06)"/><path class="cls-29" d="M432,42.57a11.81,11.81,0,1,1-11.8-11.81A11.8,11.8,0,0,1,432,42.57Z" transform="translate(-21.54 -20.06)"/><path class="cls-30" d="M339.59,46.85A11.81,11.81,0,1,1,327.78,35,11.81,11.81,0,0,1,339.59,46.85Z" transform="translate(-21.54 -20.06)"/><circle class="cls-31" cx="437.16" cy="50.83" r="11.21"/><path class="cls-32" d="M307.34,70.9a11.21,11.21,0,1,1-11.21-11.22A11.21,11.21,0,0,1,307.34,70.9Z" transform="translate(-21.54 -20.06)"/><path class="cls-33" d="M490,106a9.21,9.21,0,1,1-9.21-9.2A9.21,9.21,0,0,1,490,106Z" transform="translate(-21.54 -20.06)"/><path class="cls-34" d="M362.23,158.31a6.47,6.47,0,1,1-6.47-6.47A6.47,6.47,0,0,1,362.23,158.31Z" transform="translate(-21.54 -20.06)"/><path class="cls-35" d="M277.39,110.17a9.47,9.47,0,1,1,9.46-9.47A9.48,9.48,0,0,1,277.39,110.17Z" transform="translate(-21.54 -20.06)"/><path class="cls-23" d="M285.07,100.7A7.69,7.69,0,1,1,277.39,93,7.68,7.68,0,0,1,285.07,100.7Z" transform="translate(-21.54 -20.06)"/><path class="cls-36" d="M283.32,100.7a6,6,0,1,1-6-6A6,6,0,0,1,283.32,100.7Z" transform="translate(-21.54 -20.06)"/><path class="cls-25" d="M279.33,96.81c0,.72-.89,1.31-2,1.31s-2-.59-2-1.31.9-1.32,2-1.32S279.33,96.08,279.33,96.81Z" transform="translate(-21.54 -20.06)"/></svg>