<svg id="Layer_1" xmlns="http://www.w3.org/2000/svg" viewBox="0 0 102.8 20.9"><style>.st0{fill:#fff}</style><path class="st0" d="M100.4 1.8h.4c.2 0 .3 0 .4-.1.1 0 .1-.1.1-.2v-.2l-.1-.1h-.7l-.1.6zm-.3 1.2V1h1.2c.1 0 .2.1.3.2.1.1.1.2.1.3 0 .2 0 .3-.2.4-.1.1-.3.2-.4.2.1 0 .1.1.2.1.1.1.2.2.3.4l.3.4h-.4l-.2-.3c-.1-.3-.3-.4-.3-.5 0 0-.2-.1-.3-.1h-.2v.8l-.4.1zm.8-2.6c-.3 0-.5.1-.8.2s-.5.3-.6.6-.2.5-.2.8.1.5.2.8.3.4.6.6c.3.1.5.2.8.2s.5-.1.8-.2c.3-.1.5-.3.6-.6s.2-.5.2-.8-.1-.5-.2-.8-.3-.5-.6-.6-.6-.2-.8-.2m0-.3c.3 0 .6.1.9.3s.5.4.7.7.3.6.3.9-.1.6-.3.9c-.2.3-.4.5-.7.7-.3.2-.6.3-.9.3s-.6-.1-.9-.3-.5-.4-.7-.7c-.2-.3-.3-.6-.3-.9s.1-.6.3-.9c.2-.3.4-.5.7-.7.3-.2.6-.3.9-.3M0 20.9L2.8.1h12.4l-.5 3.6H6.6L6 8.4h4.5L10 12H5.5l-.7 5.2H13l-.5 3.7zm17.3 0L20 .1h12.5L32 3.7h-8.1l-.6 4.7h4.4l-.5 3.6h-4.4l-1.2 8.9zm13.9 0L42.1.1h4.8L52 20.9h-4.7l-.8-4.5h-8l-2.3 4.5h-5zM45.5 13l-1-4.9c-.2-1-.4-2.5-.5-4.4-.4 1.5-.9 2.8-1.4 3.9L40.1 13h5.4zm15-3.7h.7c1.4 0 2.5-.2 3.2-.6.7-.4 1.1-1.3 1.1-2.6 0-1.1-.3-1.8-.9-2.2-.6-.3-1.6-.4-2.8-.4h-.5l-.8 5.8zM59 20.9h-4.4L57.4 0h4.1c1.3 0 2.5 0 3.5.2 1 .1 2 .5 2.8 1.2.7.5 1.2 1.2 1.6 2s.5 1.7.5 2.6c0 2.4-.8 4.2-2.5 5.4-.8.6-1.8 1-2.8 1.2s-2.2.3-3.5.3h-1l-1.1 8zm12.6 0L74.4.1h12.5l-.5 3.6h-8.1l-.6 4.7h4.4l-.4 3.6h-4.5l-.7 5.2h8.1l-.5 3.7zm16.9 0L91.3.1h4.4l-2.3 17.1h7.2l-.5 3.7z"/></svg>